<svg width="40" height="41" viewBox="0 0 40 41" fill="none" xmlns="http://www.w3.org/2000/svg">
<path d="M0.27439 0.357447C0.425244 0.21842 0.658544 0.0778217 0.79269 0.045045C0.926836 0.0121465 9.67098 -0.00699757 20.224 0.00238461L39.4113 0.0194524L39.7057 0.361342L40 0.70325V20.0759V39.4484L39.6773 39.7472L39.3546 40.046H30.1568H20.9589L25.2051 35.6291L29.4512 31.2121L22.3171 31.1067C18.3933 31.0487 15.1622 30.9823 15.1368 30.9592C15.0976 30.9232 16.6201 29.3116 23.3582 22.2564C23.9022 21.6868 24.6393 20.9055 24.9962 20.5201C25.3532 20.1347 25.6783 19.8197 25.7189 19.8199C25.7595 19.8201 26.7798 21.5161 27.9861 23.5887C29.1924 25.6614 30.1983 27.3383 30.2213 27.3154C30.2444 27.2923 30.2231 24.0526 30.174 20.1159L30.0849 12.9584L27.5228 13.0382C26.1137 13.0821 22.8567 13.1179 20.2852 13.1179C17.7137 13.1179 15.6111 13.1591 15.6127 13.2093C15.6143 13.2595 17.1919 14.1021 19.1188 15.0816C21.0455 16.0611 22.6219 16.9198 22.6219 16.9898C22.6219 17.132 21.4834 18.3034 11.9552 27.963C8.29756 31.6711 5.28658 34.7554 5.26426 34.8168C5.23987 34.8836 8.1872 34.9284 12.6118 34.9284C16.6754 34.9284 20 34.9579 20 34.994C20 35.0302 18.8613 36.1795 17.4695 37.548L14.939 40.0365L7.7689 40.0413L0.59866 40.046L0.299395 39.7469L0 39.4478V20.0291V0.610286L0.27439 0.357447Z" fill="white"/>
</svg>
